# xmcd CD database file
#
# Track frame offsets:
#	150
#	10977
#	24146
#	41452
#	53380
#	67509
#	77668
#	92731
#	104826
#	113884
#	125213
#	137267
#	148318
#	160217
#	169888
#	182373
#	193549
#	206075
#	213307
#
# Disc length: 2985 seconds
#
# Revision: 0
# Processed by: cddbd v1.5.2PL0 Copyright (c) Steve Scherf et al.
# Submitted via: CDex 1.70beta2
#
DISCID=fd0ba713
DTITLE=Hop Wilson - Houston Ghetto Blues
DYEAR=1900
DGENRE=Blues
TTITLE0=My Woman Has a Black Cat Bone 
TTITLE1=Feel So Glad
TTITLE2=I'm a Stranger
TTITLE3=Be Careful With the Blues
TTITLE4=I Ain't Got No Woman
TTITLE5=My Woman Done Quit Me
TTITLE6=Merry Christmas Darling
TTITLE7=Dance to It
TTITLE8=Rockin' the Coconut Tops
TTITLE9=Fuss Too Much
TTITLE10=Why Do You Twist
TTITLE11=A Good Woman Is Hard to Find
TTITLE12=I Need Your Love to Keep Me Warm
TTITLE13=You Don't Move Me Anymore
TTITLE14=I Done Got Over
TTITLE15=You Don't Love Me Anymore
TTITLE16=I Met a Strange Woman
TTITLE17=Chicken Stuff
TTITLE18=Rockin' With Hop
EXTD=
EXTT0=
EXTT1=
EXTT2=
EXTT3=
EXTT4=
EXTT5=
EXTT6=
EXTT7=
EXTT8=
EXTT9=
EXTT10=
EXTT11=
EXTT12=
EXTT13=
EXTT14=
EXTT15=
EXTT16=
EXTT17=
EXTT18=
PLAYORDER=
